<?xml version="1.0" standalone="no"?><!DOCTYPE svg PUBLIC "-//W3C//DTD SVG 1.1//EN" "http://www.w3.org/Graphics/SVG/1.1/DTD/svg11.dtd"><svg t="1730853304829" class="icon" viewBox="0 0 1024 1024" version="1.1" xmlns="http://www.w3.org/2000/svg" p-id="4098" xmlns:xlink="http://www.w3.org/1999/xlink" width="32" height="32"><path d="M213.333333 554.666667a42.666667 42.666667 0 0 1 42.666667 42.666666v170.666667h170.666667a42.666667 42.666667 0 1 1 0 85.333333H213.333333a42.666667 42.666667 0 0 1-42.666666-42.666666v-213.333334a42.666667 42.666667 0 0 1 42.666666-42.666666zM554.666667 213.333333a42.666667 42.666667 0 0 1 42.666666-42.666666h213.333334a42.666667 42.666667 0 0 1 42.666666 42.666666v213.333334a42.666667 42.666667 0 1 1-85.333333 0V256h-170.666667a42.666667 42.666667 0 0 1-42.666666-42.666667z" fill="#14181F" p-id="4099"></path></svg>