<?xml version="1.0" standalone="no"?><!DOCTYPE svg PUBLIC "-//W3C//DTD SVG 1.1//EN" "http://www.w3.org/Graphics/SVG/1.1/DTD/svg11.dtd"><svg t="1730853265167" class="icon" viewBox="0 0 1024 1024" version="1.1" xmlns="http://www.w3.org/2000/svg" p-id="3270" xmlns:xlink="http://www.w3.org/1999/xlink" width="32" height="32"><path d="M683.946667 373.674667A42.666667 42.666667 0 0 1 725.333333 341.333333h170.666667a42.666667 42.666667 0 1 1 0 85.333334h-137.301333l-22.016 88.234666A170.666667 170.666667 0 1 1 640 795.562667a42.666667 42.666667 0 1 1 64-56.448 85.333333 85.333333 0 1 0 0-112.896 42.666667 42.666667 0 0 1-73.386667-38.528l53.333334-214.016zM128 170.666667a42.666667 42.666667 0 0 1 42.666667 42.666666v256h256V213.333333a42.666667 42.666667 0 1 1 85.333333 0v597.333334a42.666667 42.666667 0 1 1-85.333333 0v-256H170.666667v256a42.666667 42.666667 0 1 1-85.333334 0V213.333333a42.666667 42.666667 0 0 1 42.666667-42.666666z" fill="#14181F" p-id="3271"></path></svg>